<?xml version="1.0" encoding="UTF-8" standalone="no"?><!DOCTYPE svg PUBLIC "-//W3C//DTD SVG 1.1//EN" "http://www.w3.org/Graphics/SVG/1.1/DTD/svg11.dtd"><svg width="100%" height="100%" viewBox="0 0 834 451" version="1.1" xmlns="http://www.w3.org/2000/svg" xmlns:xlink="http://www.w3.org/1999/xlink" xml:space="preserve" xmlns:serif="http://www.serif.com/" style="fill-rule:evenodd;clip-rule:evenodd;stroke-linecap:round;stroke-linejoin:round;stroke-miterlimit:1.5;"><g id="i1"><path d="M283.913,8.303c28.358,-1.368 107.291,-0.628 118.57,-0.38c13.643,-0.842 24.157,4.478 31.542,15.961c5.626,11.304 9.426,23.212 11.401,35.723c8.443,48.883 16.804,97.781 25.083,146.693c2.967,16.791 6.26,33.512 9.88,50.164c6.718,-4.317 10.771,-10.398 12.161,-18.242c0.677,-16.207 1.057,-32.422 1.14,-48.644c-0.741,-39.775 -0.868,-79.552 -0.38,-119.33c0.681,-13.736 1.948,-27.417 3.801,-41.043c0.234,-0.615 0.614,-1.122 1.14,-1.521c7.664,1.917 15.265,4.07 22.802,6.461c4.94,1.9 8.361,5.32 10.261,10.261c1.131,75.979 1.511,151.985 1.14,228.019c46.745,-0.252 93.363,0.001 139.852,0.76l0,34.203c-46.62,-0.253 -93.237,0 -139.852,0.76c0.094,0.462 0.347,0.715 0.76,0.76c17.003,24.389 28.404,51.245 34.203,80.567c-2.294,-0.125 -18.535,3.271 -24.322,4.56c-6.337,-15.835 -13.051,-31.544 -20.142,-47.124c-7.009,-14.358 -18.284,-23.352 -33.823,-26.982c-20.573,-5.211 -40.842,-4.198 -60.805,3.04c-11.496,6.136 -19.984,15.13 -25.462,26.983c-5.177,12.868 -9.357,26.043 -12.541,39.523l-84.367,0c-1.637,-14.137 -5.057,-27.818 -10.261,-41.043c-5.792,-12.379 -15.039,-21.12 -27.743,-26.223c-14.469,-5.759 -29.417,-7.912 -44.843,-6.46c-6.821,1.892 -13.408,4.299 -19.762,7.22c-15.025,11.224 -28.326,24.272 -39.903,39.144c-0.317,-26.477 -0.697,-52.952 -1.141,-79.427c-0.076,-17.662 0.811,-35.269 2.661,-52.824c3.816,-5.721 9.009,-9.522 15.581,-11.401c1.823,0.183 3.343,-0.324 4.56,-1.521c3.295,-0.316 47.903,-1.289 66.886,-1.52c-0.039,-28.757 0.502,-149.464 4.18,-180.895c1.353,-12.004 7.813,-19.984 19.382,-23.942c2.704,-1.07 5.491,-1.83 8.361,-2.28Z" style="fill:#04c140;"/><path d="M570.369,41.126c8.948,-1.401 66.944,-2.655 86.647,2.28c4.352,1.29 8.406,3.19 12.161,5.701c1.448,14.911 2.969,147.74 0.38,199.137c-2.44,2.441 -5.1,4.595 -7.98,6.46c-25.647,4.648 -51.489,6.168 -77.527,4.561c-11.716,-0.924 -22.99,-3.584 -33.823,-7.981c-3.208,-19.751 -3.311,-134.911 -3.8,-172.535c0.365,-10.75 1.632,-21.391 3.8,-31.922c6.437,-2.782 13.151,-4.682 20.142,-5.701Z" style="fill:#f753a2;"/><path d="M289.993,44.406c27.11,-0.127 54.219,0 81.327,0.38c9.061,0.136 17.929,1.403 26.602,3.8c4.627,4.562 7.794,10.009 9.501,16.342c6.057,27.473 11.378,55.089 15.962,82.847c6.395,30.125 8.422,60.527 6.08,91.207c-0.67,6.769 -2.063,13.357 -4.18,19.762c-9.636,6.464 -20.277,9.885 -31.923,10.261c-21.786,-0.228 -43.574,-0.608 -65.366,-1.14c-1.188,-8.696 -2.835,-17.31 -4.94,-25.842c-2.821,-9.906 -8.522,-17.634 -17.101,-23.182c-4.398,-3.212 -9.212,-5.62 -14.442,-7.221c-0.633,-9.871 -1.013,-19.752 -1.14,-29.643c-0.38,-45.856 -0.507,-91.713 -0.38,-137.571Z" style="fill:#fefefe;"/><circle cx="237.199" cy="389.095" r="43.354" style="fill:#ebebeb;fill-opacity:0;stroke:#000;stroke-width:36.4px;"/><circle cx="465.218" cy="389.095" r="43.354" style="fill:#ebebeb;fill-opacity:0;stroke:#000;stroke-width:36.4px;"/></g></svg>