<?xml version="1.0" encoding="UTF-8" standalone="no"?><!DOCTYPE svg PUBLIC "-//W3C//DTD SVG 1.1//EN" "http://www.w3.org/Graphics/SVG/1.1/DTD/svg11.dtd"><svg width="100%" height="100%" viewBox="0 0 834 451" version="1.1" xmlns="http://www.w3.org/2000/svg" xmlns:xlink="http://www.w3.org/1999/xlink" xml:space="preserve" xmlns:serif="http://www.serif.com/" style="fill-rule:evenodd;clip-rule:evenodd;stroke-linejoin:round;stroke-miterlimit:2;"><g id="i2"><path d="M478.736,85.574c6.805,2.201 13.805,3.951 21,5.25c23.32,5.651 45.82,13.775 67.5,24.375c35.635,21.906 61.76,52.031 78.375,90.375c1.498,10.01 -2.627,16.26 -12.375,18.75l-12,0c-2.021,-0.325 -3.647,-1.324 -4.875,-3c-10.787,-13.537 -21.287,-27.286 -31.5,-41.25c-15.671,-20.311 -35.296,-35.311 -58.875,-45c-3.439,-1.98 -7.189,-3.229 -11.25,-3.75c-23.214,-4.977 -46.715,-7.477 -70.5,-7.5c-8.747,-0.5 -17.621,-0.75 -26.625,-0.75c-14.516,-0.095 -28.891,0.404 -43.125,1.5c-38.516,1.031 -71.766,14.407 -99.75,40.125c-2.599,3.35 -5.474,6.475 -8.625,9.375c-12.875,16.375 -25.75,32.75 -38.625,49.125c-11.867,4.88 -20.742,1.755 -26.625,-9.375c-0.5,-2.75 -0.5,-5.5 0,-8.25c22.221,-49.474 58.345,-84.349 108.375,-104.625c22.872,-8.249 46.372,-13.874 70.5,-16.875c-8.519,-10.642 -16.893,-21.393 -25.125,-32.25c-3.559,-5.619 -6.309,-11.619 -8.25,-18c-1.339,-21.171 8.662,-32.671 30,-34.5c8.993,0.374 16.743,3.624 23.25,9.75c2.975,4.676 4.6,9.801 4.875,15.375c-1.096,9.671 -2.471,19.295 -4.125,28.875c-0.5,3.25 -0.5,6.5 0,9.75c5.75,7.25 11.5,14.5 17.25,21.75c10.004,-8.382 19.879,-16.882 29.625,-25.5c-3.949,-10.471 -7.824,-20.971 -11.625,-31.5c-1.144,-2.415 -1.644,-4.915 -1.5,-7.5c5.625,-5.125 11.25,-10.25 16.875,-15.375c11.187,-7.402 22.437,-7.402 33.75,0c3.515,3.407 6.39,7.282 8.625,11.625c2.229,5.438 4.604,10.812 7.125,16.125c-11.885,16.262 -23.635,32.638 -35.25,49.125c4.361,1.715 8.861,2.966 13.5,3.75Z" style="fill:#f754a2;"/><path d="M533.486,445.574l-199.5,0c-5.361,-0.744 -10.861,-0.994 -16.5,-0.75c-5.34,-1.071 -10.84,-1.57 -16.5,-1.5c-0.801,-0.7 -1.801,-0.951 -3,-0.75c-1.454,-1.247 -3.204,-1.747 -5.25,-1.5c-27.756,-8.092 -50.381,-23.842 -67.875,-47.25c-8.64,-12.67 -12.89,-26.67 -12.75,-42c1.636,-12.429 4.135,-24.679 7.5,-36.75c7.961,-26.67 18.211,-52.42 30.75,-77.25c15.851,-28.602 37.226,-52.227 64.125,-70.875c17.493,-10.581 36.493,-16.831 57,-18.75c29.498,-0.733 58.998,-0.983 88.5,-0.75c19.359,0.351 38.109,3.851 56.25,10.5c24.455,12.169 45.08,29.044 61.875,50.625c26.492,35.999 44.492,75.998 54,120c9.298,32.847 1.173,60.472 -24.375,82.875c-10.441,7.814 -21.191,15.19 -32.25,22.125c-13.697,5.421 -27.698,9.421 -42,12Z" style="fill:#01c13f;"/></g></svg>