<?xml version="1.0" encoding="UTF-8" standalone="no"?><!DOCTYPE svg PUBLIC "-//W3C//DTD SVG 1.1//EN" "http://www.w3.org/Graphics/SVG/1.1/DTD/svg11.dtd"><svg width="100%" height="100%" viewBox="0 0 834 451" version="1.1" xmlns="http://www.w3.org/2000/svg" xmlns:xlink="http://www.w3.org/1999/xlink" xml:space="preserve" xmlns:serif="http://www.serif.com/" style="fill-rule:evenodd;clip-rule:evenodd;stroke-linejoin:round;stroke-miterlimit:2;"><g id="i3"><path d="M518.132,85.538c-9.221,5.94 -17.347,13.189 -24.375,21.75c-3.635,7.051 -5.51,14.551 -5.625,22.5c-6.769,1.418 -12.394,0.543 -18.375,1.125c0.5,-7.5 1.375,-15.375 1.875,-22.875c5.797,-10.338 12.172,-20.338 19.125,-30c2.704,-5.159 5.204,-10.409 7.5,-15.75c1.894,-17.097 -5.231,-28.472 -21.375,-34.125c-4.272,-0.622 -8.522,-0.497 -12.75,0.375c-5.177,6.105 -9.803,12.605 -13.875,19.5c-3.746,7.494 -7.871,14.744 -12.375,21.75c-6.125,-3.436 -12.125,-7.061 -18,-10.875c-0.624,-0.516 -1.124,-0.39 -1.5,0.375c-12.449,23.158 -25.449,45.908 -39,68.25c-7.009,1.253 -14.009,2.503 -21,3.75c-0.25,-1.374 -0.5,-2.75 -0.75,-4.125c0.613,-6.12 1.113,-12.245 1.5,-18.375c0.763,-3.275 2.137,-6.275 4.125,-9c4.961,-7.212 10.211,-14.212 15.75,-21c13.912,-17.826 12.037,-33.701 -5.625,-47.625c-7.054,-3.754 -14.304,-4.254 -21.75,-1.5c-3.109,2.862 -5.984,5.986 -8.625,9.375c-4.439,7.127 -8.69,14.377 -12.75,21.75c-5.686,7.992 -12.185,8.742 -19.5,2.25c-2.403,-32.834 18.25,-50.062 32.25,-58.125c11.771,-6.779 43.104,2.484 51.75,9.75c10.187,8.563 15.49,20.457 21.75,40.875c7.855,-19.099 19.937,-42.187 33.375,-50.625c13.339,-8.375 35.687,-4.437 47.25,0c10.773,4.135 22.216,17.334 25.125,28.5c3.5,13.438 8.431,34.464 -4.125,52.125Z" style="fill:#232624;"/><path d="M518.132,85.538c-7.927,13.095 -16.427,25.845 -25.5,38.25c9.157,6.271 18.532,12.271 28.125,18c1.78,10.626 3.406,21.251 4.875,31.875c74.283,11.829 141.783,39.579 202.5,83.25c23.01,17.505 44.13,37.131 63.375,58.875c14.115,16.862 27.367,34.362 39.75,52.5c11.227,18.525 12.225,37.525 3,57c-9.188,13.776 -22.058,22.026 -38.625,24.75c-7.748,1 -15.503,1 -23.25,0c-6.555,-7.932 -12.683,-16.182 -18.375,-24.75c-8.265,-16.037 -16.89,-31.787 -25.875,-47.25c-6.825,-13.064 -14.825,-25.314 -24,-36.75c-18.197,-31.447 -42.947,-56.447 -74.25,-75c-29.626,-20.931 -62.376,-34.68 -98.25,-41.25c-17.063,5.713 -34.563,9.213 -52.5,10.5l-18.75,0c-10.526,-3.342 -21.026,-6.842 -31.5,-10.5c-42.938,7.463 -81.438,24.588 -115.5,51.375c-33.39,27.504 -60.89,59.879 -82.5,97.125c-7.76,12.516 -14.76,25.517 -21,39c-5.417,9.576 -11.042,19.077 -16.875,28.5c-4.099,4.994 -9.224,8.244 -15.375,9.75c-5.258,-0.126 -10.508,-0.375 -15.75,-0.75c-22.301,-3.919 -36.426,-16.919 -42.375,-39c-2.597,-9.583 -3.722,-19.333 -3.375,-29.25c2.5,-4.5 5,-9 7.5,-13.5c8.475,-8.601 16.849,-17.351 25.125,-26.25c22.252,-25.376 44.627,-50.626 67.125,-75.75c35.275,-25.64 73.024,-47.015 113.25,-64.125c12.82,-4.422 81.739,-22.97 84.75,-24.375c7.223,-0.807 14.348,-2.058 21.375,-3.75c2.596,-11.729 5.095,-23.478 7.5,-35.25c12.349,-7.703 21.974,-17.952 28.875,-30.75c-0.5,7.5 -1,15 -1.5,22.5c1.098,0.495 13.381,-0.077 18,-0.75c0.115,-7.949 1.99,-15.449 5.625,-22.5c7.028,-8.561 15.154,-15.81 24.375,-21.75Z" style="fill:#04c03f;"/><path d="M359.132,108.788c-0.387,6.13 -0.887,12.255 -1.5,18.375c0.25,1.375 0.5,2.751 0.75,4.125c6.991,-1.247 13.991,-2.497 21,-3.75c9.913,4.644 19.787,9.394 29.625,14.25c1.522,12.024 3.146,24.024 4.875,36c-3.011,1.405 -59.039,15.381 -90.375,28.125c-33.483,13.618 -72.35,34.735 -107.625,60.375c-42.737,22.995 -73.487,56.995 -92.25,102c-2.5,4.5 -5,9 -7.5,13.5c-8.045,12.828 -15.92,25.828 -23.625,39c-6.419,9.462 -13.295,18.586 -20.625,27.375c-3.423,1.107 -6.923,1.731 -10.5,1.875c-4.507,-0.15 -9.007,-0.4 -13.5,-0.75c-22.66,-6.29 -36.535,-21.039 -41.625,-44.25c-0.887,-7.425 -0.137,-14.675 2.25,-21.75c49.15,-82.911 118.025,-143.037 206.625,-180.375c34.419,-13.106 69.919,-22.481 106.5,-28.125c3.382,-20.988 13.006,-38.488 28.875,-52.5c2.706,-4.675 5.581,-9.175 8.625,-13.5Z" style="fill:#f653a2;"/><path d="M629.882,266.288c19.947,26.328 42.697,50.203 68.25,71.625c1.919,1.333 3.919,2.458 6,3.375c9.175,11.436 17.175,23.686 24,36.75c0.982,14.661 -0.893,28.911 -5.625,42.75c-5.535,12.285 -14.66,20.66 -27.375,25.125c-7.242,2.298 -14.617,3.924 -22.125,4.875c-2.375,-0.249 -4.75,-0.5 -7.125,-0.75c-5.288,-1.898 -9.663,-5.148 -13.125,-9.75c-5.891,-9.292 -11.766,-18.542 -17.625,-27.75c15.502,0.126 31.002,0 46.5,-0.375c10.987,-1.309 21.737,-3.684 32.25,-7.125c0.499,-3.867 0.749,-7.866 0.75,-12c-0.004,-4.283 -0.504,-8.283 -1.5,-12c-9.812,-3.788 -20.063,-5.913 -30.75,-6.375c-21.998,-0.375 -43.999,-0.5 -66,-0.375l0,-0.75c-11.13,-17.01 -23.005,-33.51 -35.625,-49.5c-30.962,-38.348 -69.087,-67.098 -114.375,-86.25c-0.083,-0.462 -0.333,-0.837 -0.75,-1.125c4.636,-0.129 9.136,-0.504 13.5,-1.125c17.937,-1.287 35.437,-4.787 52.5,-10.5c35.874,6.57 68.624,20.319 98.25,41.25Z" style="fill:#f654a2;"/><path d="M460.382,235.538l18.75,0c-4.364,0.621 -8.864,0.996 -13.5,1.125c0.417,0.288 0.667,0.663 0.75,1.125c-2.173,-0.471 -4.173,-1.221 -6,-2.25Z" style="fill:#d86f9c;"/><path d="M215.882,266.288c-22.498,25.124 -44.873,50.374 -67.125,75.75c-8.276,8.899 -16.65,17.649 -25.125,26.25c18.763,-45.005 49.513,-79.005 92.25,-102Z" style="fill:#caa8b5;"/><path d="M629.882,266.288c31.303,18.553 56.053,43.553 74.25,75c-2.081,-0.917 -4.081,-2.042 -6,-3.375c-25.553,-21.422 -48.303,-45.297 -68.25,-71.625Z" style="fill:#cea3b4;"/><path d="M230.882,373.538c7.885,-0.246 15.635,0.005 23.25,0.75c-5.855,6.693 -7.979,14.443 -6.375,23.25c1.557,4.796 3.181,9.546 4.875,14.25c-14.12,0.748 -28.37,0.998 -42.75,0.75c6.24,-13.483 13.24,-26.484 21,-39Z" style="fill:#d08aa7;"/><path d="M254.882,373.538c120.496,0.724 240.997,0.974 361.5,0.75c22.001,-0.125 44.002,0 66,0.375c10.687,0.462 20.938,2.587 30.75,6.375c0.732,7.939 0.982,15.939 0.75,24c-10.513,3.441 -21.263,5.816 -32.25,7.125c-15.498,0.375 -30.998,0.501 -46.5,0.375c-127.553,0.249 -255.053,0 -382.5,-0.75c-1.694,-4.704 -3.318,-9.454 -4.875,-14.25c-1.604,-8.807 0.52,-16.557 6.375,-23.25c0.5,0 0.75,-0.249 0.75,-0.75Z" style="fill:#06c040;"/></g></svg>