<?xml version="1.0" encoding="UTF-8" standalone="no"?><!DOCTYPE svg PUBLIC "-//W3C//DTD SVG 1.1//EN" "http://www.w3.org/Graphics/SVG/1.1/DTD/svg11.dtd"><svg width="100%" height="100%" viewBox="0 0 834 451" version="1.1" xmlns="http://www.w3.org/2000/svg" xmlns:xlink="http://www.w3.org/1999/xlink" xml:space="preserve" xmlns:serif="http://www.serif.com/" style="fill-rule:evenodd;clip-rule:evenodd;stroke-linecap:round;stroke-linejoin:round;stroke-miterlimit:1.5;"><g id="i4"><path d="M533.613,312.79c-13.913,1.609 -66.774,4.093 -79.261,3.409c-5.297,-0.486 -10.411,-1.764 -15.341,-3.835c-16.295,-9.777 -32.772,-19.152 -49.432,-28.125c-8.012,-2.428 -15.966,-4.558 -23.863,-6.392c-7.236,-0.986 -14.623,-1.129 -22.16,-0.426c-1.327,0.179 -2.463,0.605 -3.409,1.278c-4.408,1.514 -8.954,2.792 -13.636,3.835c-17.2,9.879 -34.529,19.538 -51.989,28.977c-21.696,8.781 -43.287,8.497 -64.772,-0.852c-4.079,-6.215 -5.358,-12.892 -3.836,-20.028c0.747,-1.82 2.025,-2.957 3.836,-3.409c4.123,-0.351 8.1,-0.919 11.931,-1.705c22.63,-1.669 43.085,-9.056 61.364,-22.159c-10.753,-1.266 -256.862,-3.697 -273.58,-5.114c8.423,-9.418 17.515,-18.083 27.273,-25.994c7.644,-4.743 15.882,-6.874 24.716,-6.392c37.356,-1.102 129.707,-0.569 138.068,-1.705c2.164,-11.386 4.436,-22.75 6.819,-34.09c24.149,0.363 48.297,0.505 72.443,0.426c10.005,-0.181 19.663,-1.744 28.977,-4.688c2.325,0.281 4.314,-0.287 5.966,-1.704c9.291,-2.656 17.246,-7.486 23.864,-14.489c-21.443,-0.869 -42.75,-1.722 -63.921,-2.557c-68.182,-0.568 -136.364,-1.136 -204.545,-1.704c5.527,-13.908 15.186,-23.709 28.977,-29.404c6.525,-1.955 13.058,-3.517 19.602,-4.687c12.771,-0.69 66.044,0.281 80.114,0c3.67,-11.72 7.931,-23.226 12.784,-34.517c40.625,-0.284 141.217,-1.626 150.852,-2.557c12.363,-2.19 21.738,-8.583 28.125,-19.176c0.463,-0.051 0.747,-0.335 0.852,-0.853c-8.219,-0.85 -16.457,-1.135 -24.715,-0.852c-79.552,0.25 -159.097,-0.034 -238.637,-0.852c4.129,-17.338 14.923,-27.991 32.387,-31.96c12.425,-2.094 24.783,-4.51 37.073,-7.245c6.138,-10.138 11.961,-20.507 17.472,-31.108c5.268,-0.146 229.557,-3.736 317.046,-1.278c2.086,29.778 3.81,237.788 2.556,311.932Z" style="fill:#f753a2;"/><path d="M620.738,56.838c35.559,-0.37 71.07,0.625 106.534,2.983c9.396,2.633 16.925,7.889 22.585,15.767c9.542,13.823 18.065,28.311 25.568,43.466c14.387,28.2 28.304,56.609 41.762,85.227c4.389,11.537 6.946,23.469 7.67,35.795c0.563,21.033 0.281,42.056 -0.852,63.069c-11.378,2.879 -22.884,5.293 -34.517,7.244c-8.283,0.732 -16.521,0.448 -24.716,-0.852c-18.532,-10.853 -37.282,-21.364 -56.25,-31.534c-22.864,-9.407 -45.733,-9.549 -68.608,-0.427c-6.179,2.877 -12.287,5.86 -18.324,8.949c-6.747,4.352 -13.565,8.471 -20.455,12.358c-6.82,3.838 -13.922,6.963 -21.306,9.375c-2.572,-0.174 -5.129,-0.457 -7.671,-0.852c-6.852,-4.299 -10.971,-10.549 -12.358,-18.75c-0.848,-4.221 -1.416,-8.483 -1.704,-12.784c-2.021,-54.81 -2.873,-109.639 -2.557,-164.489c0.331,-12.021 1.467,-23.953 3.409,-35.795c2.036,-5.641 5.587,-10.044 10.653,-13.21c3.809,-1.222 7.502,-2.5 11.08,-3.836c13.493,-0.396 26.845,-0.964 40.057,-1.704Z" style="fill:#04c140;"/><path d="M617.743,92.157c13.567,-2.364 64.028,2.037 75.852,2.983c18.048,21.308 44.944,89.519 47.727,98.011c-2.511,0.7 -99.732,2.9 -145.738,0.852c-0.177,-16.477 -0.349,-75.635 1.278,-88.636c5.22,-7.088 12.18,-11.491 20.881,-13.21Z" style="fill:#fdfefd;"/><g><circle cx="356.06" cy="370.444" r="59.659" style="fill:#bababa;stroke:#000;stroke-width:35.28px;"/><circle cx="356.06" cy="370.779" r="19.283"/></g><g><circle cx="679.924" cy="370.444" r="59.659" style="fill:#bababa;stroke:#000;stroke-width:35.28px;"/><circle cx="679.924" cy="370.779" r="19.283"/></g><path d="M247.849,393.403l-39.205,0c0.202,-1.1 -0.852,-34.946 -0.426,-51.136c9.961,-3.32 37.082,-9.802 40.483,-10.228c-0.253,20.456 -0.538,40.91 -0.852,61.364Z" style="fill:#434343;"/><path d="M813.731,390.142c-11.651,0.528 -23.298,1.096 -34.943,1.705c0.067,-17.387 1.061,-34.717 2.982,-51.989c-0.739,-5.084 1.391,-7.073 6.393,-5.966c6.715,0.361 26.258,6.593 28.977,8.949c1.534,6.147 1.329,37.782 0.852,47.301l-4.261,0Z" style="fill:#030303;"/><path d="M581.486,338.431l-127.841,0l0,4.262c-0.819,-1.505 -1.103,-3.209 -0.852,-5.114c43.042,-0.283 85.94,0.001 128.693,0.852Z" style="fill:#aaa;"/><path d="M581.486,338.431c-0.594,18.176 -0.877,36.357 -0.852,54.546l-123.58,0c-1.362,-16.742 -3.409,-53.125 -3.409,-54.546l127.841,0Z" style="fill:#010101;"/><path d="M457.054,392.977l123.58,0c-4.51,1.132 -9.339,1.701 -14.489,1.704c-36.504,-0.481 -72.868,-1.05 -109.091,-1.704Z" style="fill:#9d9d9d;"/></g></svg>