<?xml version="1.0" encoding="UTF-8" standalone="no"?><!DOCTYPE svg PUBLIC "-//W3C//DTD SVG 1.1//EN" "http://www.w3.org/Graphics/SVG/1.1/DTD/svg11.dtd"><svg width="100%" height="100%" viewBox="0 0 834 451" version="1.1" xmlns="http://www.w3.org/2000/svg" xmlns:xlink="http://www.w3.org/1999/xlink" xml:space="preserve" xmlns:serif="http://www.serif.com/" style="fill-rule:evenodd;clip-rule:evenodd;stroke-linejoin:round;stroke-miterlimit:2;"><g id="i5"><path d="M227.583,327.404c110.02,0.878 220.166,1.004 330.439,0.377c16.938,-0.127 33.749,-0.503 50.431,-1.129c7.833,-1.68 12.977,-6.447 15.43,-14.302c0.573,-3.251 1.075,-6.512 1.506,-9.785c0.376,-36.631 0.502,-73.262 0.376,-109.895l30.861,0c0.89,31.732 0.89,63.471 0,95.217c0.231,19.473 1.109,38.917 2.635,58.335c3.469,5.726 7.232,11.246 11.29,16.56c10.896,12.266 21.434,24.811 31.614,37.635c11.704,16.243 9.069,29.666 -7.903,40.27c-4.605,1.786 -9.372,2.789 -14.302,3.011c-173.876,0.627 -347.751,0.502 -521.626,-0.377c-14.414,-3.501 -22.193,-12.659 -23.334,-27.473c0.049,-1.951 0.425,-3.833 1.129,-5.646c2.966,-5.221 6.227,-10.239 9.785,-15.054c10.465,-11.652 20.752,-23.444 30.861,-35.377c5.605,-7.953 9.368,-16.734 11.291,-26.345c0.251,-88.067 0.502,-176.133 0.753,-264.2c0.204,-10.723 5.097,-18.25 14.677,-22.581c1.245,-0.121 2.248,-0.622 3.011,-1.506c11.647,-3.009 22.687,-1.629 33.119,4.14c1.798,1.543 3.303,3.3 4.517,5.269c-7.887,9.356 -16.041,18.514 -24.463,27.474c-0.502,71.758 -0.502,143.516 0,215.274c1.696,10.299 4.331,20.334 7.903,30.108Z" style="fill:#03c13f;"/><path d="M506.837,403.428c-8.178,2.057 -16.458,3.562 -24.839,4.516c-3.548,-0.111 -7.061,0.14 -10.538,0.753c-8.662,0.232 -17.192,0.734 -25.592,1.505c-27.616,-0.171 -55.215,-0.923 -82.798,-2.258c-7.377,-1.057 -14.904,-1.56 -22.581,-1.505c-1.493,0.258 -2.497,-0.244 -3.011,-1.506c5.809,-4.806 11.831,-9.322 18.065,-13.548c4.474,-1.354 8.99,-2.357 13.549,-3.011c28.819,-1.525 57.672,-1.902 86.561,-1.129c10.735,1.177 21.523,1.93 32.367,2.258c6.18,4.805 12.453,9.447 18.817,13.925Z" style="fill:#d7f6e7;"/><path d="M507.59,404.181c2.601,3.948 4.608,8.214 6.022,12.796c-13.159,1.268 -26.206,3.024 -39.141,5.269c-19.306,-1.143 -38.751,-1.645 -58.335,-1.506c-13.423,0.126 -26.847,0.251 -40.27,0.376c-1.909,0.14 -3.665,0.517 -5.269,1.13c-12.939,-2.314 -25.986,-4.071 -39.14,-5.269c0.432,-2.88 1.31,-5.639 2.634,-8.28c0.75,-1.626 1.879,-2.881 3.387,-3.764c0.514,1.262 1.518,1.764 3.011,1.506c7.377,1.057 14.904,1.559 22.581,1.505c27.583,1.335 55.182,2.087 82.798,2.258c6.779,0.125 13.553,0 20.323,-0.376c1.909,-0.14 3.665,-0.517 5.269,-1.129c3.477,-0.613 6.99,-0.864 10.538,-0.753c8.321,-0.444 16.6,-1.322 24.839,-2.634c0.419,-0.289 0.67,-0.665 0.753,-1.129Z" style="fill:#0dd279;"/><path d="M474.471,422.246c-4.106,2.721 -8.12,5.606 -12.043,8.656c-5.389,0.573 -10.658,1.201 -15.807,1.881c-17.564,0.977 -35.127,0.977 -52.69,0c-3.898,-0.672 -7.912,-1.299 -12.043,-1.881c-3.515,-3.257 -7.279,-6.142 -11.291,-8.656c1.604,-0.613 3.36,-0.99 5.269,-1.13c13.423,-0.125 26.847,-0.25 40.27,-0.376c19.584,-0.139 39.029,0.363 58.335,1.506Z" style="fill:#f3fdf8;"/><g><circle cx="601.679" cy="71.484" r="68.12" style="fill:url(#_Linear1);"/><path d="M564.357,70.746c19.852,-8.621 33.067,-14.349 39.704,-17.128c18.888,-7.885 22.857,-9.246 25.41,-9.303c0.567,0 1.815,0.114 2.666,0.794c0.68,0.568 0.85,1.305 0.964,1.872c0.114,0.568 0.227,1.758 0.114,2.666c-1.022,10.777 -5.445,36.924 -7.714,48.949c-0.964,5.105 -2.836,6.806 -4.651,6.977c-3.97,0.34 -6.977,-2.61 -10.777,-5.105c-6.012,-3.914 -9.359,-6.353 -15.2,-10.21c-6.751,-4.424 -2.383,-6.863 1.474,-10.833c1.021,-1.021 18.434,-16.903 18.774,-18.321c0.057,-0.17 0.057,-0.851 -0.34,-1.191c-0.397,-0.34 -0.964,-0.227 -1.418,-0.113c-0.624,0.113 -10.153,6.465 -28.7,19.001c-2.723,1.871 -5.161,2.779 -7.374,2.722c-2.438,-0.057 -7.089,-1.361 -10.606,-2.495c-4.254,-1.361 -7.657,-2.099 -7.374,-4.481c0.171,-1.248 1.872,-2.496 5.048,-3.801Z" style="fill:#fff;"/></g><g><path d="M404.469,114.077c0,9.734 -7.89,17.623 -17.624,17.623l-85.803,0c-9.733,0 -17.624,-7.889 -17.624,-17.623l0,-85.186c0,-9.733 7.891,-17.624 17.624,-17.624l85.803,0c9.734,0 17.624,7.891 17.624,17.624l0,85.186Z" style="fill:#faab62;fill-rule:nonzero;"/><path d="M403.848,113.639c0,9.633 -7.81,17.443 -17.443,17.443l-84.923,0c-9.633,0 -17.442,-7.81 -17.442,-17.443l0,-84.31c0,-9.634 7.81,-17.443 17.442,-17.443l84.923,0c9.633,0 17.443,7.809 17.443,17.443l0,84.31Z" style="fill:#f7931e;fill-rule:nonzero;"/><path d="M343.876,29.267c-11.997,0 -21.722,9.725 -21.722,21.722c0,11.997 9.725,21.723 21.722,21.723c11.998,0 21.723,-9.726 21.723,-21.723c0,-11.997 -9.725,-21.722 -21.723,-21.722Zm0,30.702c-4.959,0 -8.98,-4.02 -8.98,-8.98c0,-4.959 4.021,-8.98 8.98,-8.98c4.96,0 8.98,4.021 8.98,8.98c0,4.96 -4.02,8.98 -8.98,8.98Z" style="fill:#fff;fill-rule:nonzero;"/><g><path d="M351.546,89.997c8.696,-1.772 13.907,-5.89 14.183,-6.111c2.544,-2.041 2.954,-5.758 0.912,-8.303c-2.04,-2.545 -5.757,-2.953 -8.302,-0.913c-0.054,0.043 -5.612,4.307 -14.758,4.313c-9.144,-0.006 -14.821,-4.27 -14.874,-4.313c-2.546,-2.04 -6.263,-1.632 -8.303,0.913c-2.041,2.545 -1.632,6.262 0.913,8.303c0.279,0.224 5.705,4.45 14.646,6.179l-12.46,13.022c-2.264,2.349 -2.196,6.087 0.152,8.351c1.146,1.105 2.624,1.655 4.099,1.655c1.548,0 3.094,-0.605 4.253,-1.807l11.575,-12.33l12.744,12.41c2.309,2.306 6.048,2.302 8.353,-0.007c2.305,-2.308 2.302,-6.048 -0.007,-8.352l-13.126,-13.01Z" style="fill:#fff;fill-rule:nonzero;"/><path d="M343.581,78.983c-0.014,0 0.015,0 0,0.001c-0.014,-0.001 0.015,-0.001 0,-0.001Z" style="fill:#fff;fill-rule:nonzero;"/></g></g><g id="g3257"><path id="path2438" d="M342.632,170.465l82.276,0c10.12,0 18.326,8.204 18.326,18.326l0,82.276c0,10.12 -8.206,18.326 -18.326,18.326l-82.276,0c-10.122,0 -18.326,-8.206 -18.326,-18.326l0,-82.276c0,-10.122 8.204,-18.326 18.326,-18.326" style="fill:#4c75a3;"/><path id="path2442" d="M382.772,253.718l4.864,0c0,0 1.47,-0.162 2.221,-0.97c0.69,-0.743 0.668,-2.137 0.668,-2.137c0,0 -0.095,-6.528 2.934,-7.489c2.988,-0.947 6.823,6.309 10.888,9.099c3.073,2.111 5.409,1.649 5.409,1.649l10.869,-0.152c0,0 5.686,-0.351 2.989,-4.821c-0.22,-0.365 -1.57,-3.307 -8.081,-9.351c-6.816,-6.326 -5.902,-5.302 2.307,-16.245c5,-6.664 6.998,-10.731 6.374,-12.474c-0.595,-1.659 -4.273,-1.221 -4.273,-1.221l-12.237,0.076c0,0 -0.909,-0.124 -1.581,0.278c-0.658,0.394 -1.079,1.314 -1.079,1.314c0,0 -1.939,5.156 -4.52,9.542c-5.45,9.253 -7.63,9.743 -8.52,9.167c-2.073,-1.339 -1.555,-5.379 -1.555,-8.25c0,-8.967 1.36,-12.707 -2.648,-13.675c-1.33,-0.321 -2.311,-0.533 -5.713,-0.567c-4.367,-0.045 -8.062,0.013 -10.155,1.038c-1.392,0.682 -2.466,2.2 -1.811,2.289c0.809,0.107 2.64,0.493 3.611,1.815c1.254,1.706 1.211,5.538 1.211,5.538c0,0 0.721,10.556 -1.684,11.867c-1.649,0.899 -3.912,-0.936 -8.77,-9.331c-2.489,-4.301 -4.369,-9.055 -4.369,-9.055c0,0 -0.362,-0.888 -1.008,-1.364c-0.785,-0.575 -1.881,-0.758 -1.881,-0.758l-11.629,0.076c0,0 -1.746,0.049 -2.387,0.808c-0.57,0.676 -0.046,2.072 -0.046,2.072c0,0 9.105,21.3 19.414,32.035c9.455,9.843 20.188,9.197 20.188,9.197" style="fill:#fff;"/></g><g><path d="M601.302,174.164c0,-5.27 -1.674,-9.548 -3.736,-9.548l-99.948,0c-2.062,0 -3.735,4.278 -3.735,9.548l0,85.937c0,5.271 1.673,9.548 3.735,9.548l99.948,0c2.062,0 3.736,-4.277 3.736,-9.548l0,-85.937Z" style="fill:#005ff9;"/><path d="M557.644,217.133c0,5.543 -4.509,10.052 -10.052,10.052c-5.543,0 -10.052,-4.509 -10.052,-10.052c0,-5.543 4.509,-10.053 10.052,-10.053c5.543,0 10.052,4.51 10.052,10.053m-10.052,-33.42c-18.428,0 -33.419,14.991 -33.419,33.42c0,18.428 14.991,33.419 33.419,33.419c6.751,0 13.26,-2.01 18.825,-5.812l0.096,-0.067l-4.503,-5.233l-0.076,0.048c-4.283,2.757 -9.243,4.213 -14.342,4.213c-14.649,0 -26.568,-11.918 -26.568,-26.568c0,-14.65 11.919,-26.569 26.568,-26.569c14.65,0 26.569,11.919 26.569,26.569c0,1.897 -0.213,3.819 -0.625,5.71c-0.841,3.449 -3.257,4.504 -5.068,4.366c-1.824,-0.148 -3.958,-1.447 -3.972,-4.627l0,-2.423l0,-3.026c0,-9.322 -7.582,-16.903 -16.904,-16.903c-9.321,0 -16.903,7.581 -16.903,16.903c0,9.321 7.582,16.903 16.903,16.903c4.528,0 8.775,-1.769 11.976,-4.989c1.863,2.898 4.896,4.715 8.35,4.992c0.297,0.023 0.599,0.035 0.898,0.035c2.433,0 4.841,-0.814 6.784,-2.287c2.003,-1.522 3.5,-3.721 4.325,-6.364c0.132,-0.427 0.375,-1.404 0.375,-1.41l0.008,-0.037c0.487,-2.119 0.703,-4.232 0.703,-6.843c0,-18.429 -14.99,-33.42 -33.419,-33.42" style="fill:#ff9e0d;fill-rule:nonzero;"/></g><g><path d="M475.297,65.533c-18.045,0 -23.322,0.018 -24.348,0.104c-3.703,0.307 -6.007,0.89 -8.518,2.141c-1.935,0.96 -3.461,2.073 -4.966,3.634c-2.743,2.847 -4.405,6.349 -5.006,10.513c-0.293,2.021 -0.378,2.433 -0.396,12.757c-0.006,3.441 0,7.969 0,14.044c0,18.03 0.021,23.302 0.107,24.326c0.299,3.604 0.864,5.871 2.061,8.35c2.287,4.747 6.655,8.311 11.8,9.64c1.782,0.459 3.75,0.711 6.277,0.831c1.07,0.047 11.98,0.08 22.896,0.08c10.917,0 21.833,-0.013 22.877,-0.066c2.925,-0.138 4.624,-0.366 6.502,-0.852c5.179,-1.336 9.467,-4.846 11.8,-9.659c1.174,-2.42 1.769,-4.774 2.039,-8.189c0.058,-0.744 0.082,-12.617 0.082,-24.473c0,-11.857 -0.026,-23.707 -0.085,-24.451c-0.272,-3.471 -0.868,-5.805 -2.079,-8.271c-0.993,-2.019 -2.097,-3.527 -3.699,-5.069c-2.86,-2.731 -6.357,-4.393 -10.524,-4.994c-2.019,-0.292 -2.421,-0.378 -12.753,-0.396l-14.067,0Z" style="fill:url(#_Radial2);fill-rule:nonzero;"/><path d="M475.297,65.533c-18.045,0 -23.322,0.018 -24.348,0.104c-3.703,0.307 -6.007,0.89 -8.518,2.141c-1.935,0.96 -3.461,2.073 -4.966,3.634c-2.743,2.847 -4.405,6.349 -5.006,10.513c-0.293,2.021 -0.378,2.433 -0.396,12.757c-0.006,3.441 0,7.969 0,14.044c0,18.03 0.021,23.302 0.107,24.326c0.299,3.604 0.864,5.871 2.061,8.35c2.287,4.747 6.655,8.311 11.8,9.64c1.782,0.459 3.75,0.711 6.277,0.831c1.07,0.047 11.98,0.08 22.896,0.08c10.917,0 21.833,-0.013 22.877,-0.066c2.925,-0.138 4.624,-0.366 6.502,-0.852c5.179,-1.336 9.467,-4.846 11.8,-9.659c1.174,-2.42 1.769,-4.774 2.039,-8.189c0.058,-0.744 0.082,-12.617 0.082,-24.473c0,-11.857 -0.026,-23.707 -0.085,-24.451c-0.272,-3.471 -0.868,-5.805 -2.079,-8.271c-0.993,-2.019 -2.097,-3.527 -3.699,-5.069c-2.86,-2.731 -6.357,-4.393 -10.524,-4.994c-2.019,-0.292 -2.421,-0.378 -12.753,-0.396l-14.067,0Z" style="fill:url(#_Radial3);fill-rule:nonzero;"/><path d="M475.276,76.835c-8.666,0 -9.754,0.038 -13.158,0.193c-3.397,0.155 -5.716,0.693 -7.745,1.482c-2.099,0.816 -3.879,1.906 -5.653,3.68c-1.775,1.774 -2.865,3.554 -3.683,5.652c-0.791,2.03 -1.33,4.35 -1.483,7.746c-0.152,3.404 -0.192,4.492 -0.192,13.159c0,8.666 0.039,9.75 0.193,13.155c0.157,3.397 0.694,5.716 1.483,7.745c0.815,2.099 1.906,3.879 3.68,5.653c1.773,1.775 3.553,2.868 5.651,3.683c2.03,0.789 4.35,1.327 7.747,1.483c3.404,0.154 4.491,0.192 13.157,0.192c8.667,0 9.752,-0.038 13.155,-0.192c3.397,-0.156 5.719,-0.694 7.75,-1.483c2.097,-0.815 3.875,-1.908 5.649,-3.683c1.775,-1.774 2.865,-3.554 3.683,-5.653c0.784,-2.029 1.323,-4.349 1.483,-7.745c0.152,-3.404 0.192,-4.489 0.192,-13.155c0,-8.667 -0.04,-9.755 -0.192,-13.158c-0.16,-3.398 -0.699,-5.717 -1.483,-7.746c-0.818,-2.099 -1.908,-3.879 -3.683,-5.653c-1.775,-1.775 -3.551,-2.865 -5.652,-3.68c-2.033,-0.789 -4.354,-1.327 -7.751,-1.482c-3.405,-0.155 -4.488,-0.193 -13.157,-0.193l0.009,0Zm-2.862,5.751c0.85,-0.002 1.797,0 2.862,0c8.521,0 9.531,0.03 12.896,0.183c3.111,0.142 4.8,0.663 5.924,1.099c1.49,0.578 2.551,1.27 3.668,2.387c1.117,1.117 1.808,2.181 2.388,3.669c0.436,1.124 0.957,2.813 1.099,5.924c0.153,3.364 0.186,4.375 0.186,12.891c0,8.517 -0.033,9.527 -0.186,12.891c-0.142,3.112 -0.663,4.8 -1.099,5.924c-0.578,1.489 -1.271,2.549 -2.388,3.665c-1.117,1.118 -2.177,1.809 -3.668,2.387c-1.123,0.439 -2.813,0.958 -5.924,1.1c-3.364,0.153 -4.375,0.186 -12.896,0.186c-8.52,0 -9.53,-0.033 -12.894,-0.186c-3.112,-0.144 -4.8,-0.663 -5.926,-1.1c-1.489,-0.578 -2.553,-1.27 -3.67,-2.387c-1.117,-1.117 -1.808,-2.178 -2.388,-3.667c-0.437,-1.124 -0.958,-2.813 -1.099,-5.924c-0.153,-3.364 -0.183,-4.375 -0.183,-12.896c0,-8.523 0.03,-9.527 0.183,-12.892c0.142,-3.111 0.662,-4.8 1.099,-5.925c0.579,-1.489 1.271,-2.553 2.388,-3.67c1.117,-1.117 2.181,-1.808 3.67,-2.387c1.125,-0.439 2.814,-0.958 5.926,-1.101c2.944,-0.133 4.085,-0.173 10.032,-0.18l0,0.009Zm19.897,5.299c-2.114,0 -3.83,1.713 -3.83,3.827c0,2.115 1.716,3.83 3.83,3.83c2.114,0 3.829,-1.715 3.829,-3.83c0,-2.113 -1.715,-3.829 -3.829,-3.829l0,0.002Zm-17.035,4.474c-9.049,0 -16.388,7.337 -16.388,16.388c0,9.05 7.339,16.384 16.388,16.384c9.051,0 16.386,-7.334 16.386,-16.384c0,-9.051 -7.336,-16.388 -16.386,-16.388l0,0Zm0,5.75c5.875,0 10.638,4.763 10.638,10.638c0,5.874 -4.763,10.637 -10.638,10.637c-5.874,0 -10.637,-4.763 -10.637,-10.637c0,-5.875 4.763,-10.638 10.637,-10.638Z" style="fill:#fff;fill-rule:nonzero;"/></g></g><defs><linearGradient id="_Linear1" x1="0" y1="0" x2="1" y2="0" gradientUnits="userSpaceOnUse" gradientTransform="matrix(8.2763e-15,135.162,-135.162,8.2763e-15,601.622,3.36387)"><stop offset="0" style="stop-color:#2aabee;stop-opacity:1"/><stop offset="1" style="stop-color:#229ed9;stop-opacity:1"/></linearGradient><radialGradient id="_Radial2" cx="0" cy="0" r="1" gradientUnits="userSpaceOnUse" gradientTransform="matrix(0,-85.6491,79.6816,0,455.023,158.609)"><stop offset="0" style="stop-color:#fd5;stop-opacity:1"/><stop offset="0.1" style="stop-color:#fd5;stop-opacity:1"/><stop offset="0.5" style="stop-color:#ff543e;stop-opacity:1"/><stop offset="1" style="stop-color:#c837ab;stop-opacity:1"/></radialGradient><radialGradient id="_Radial3" cx="0" cy="0" r="1" gradientUnits="userSpaceOnUse" gradientTransform="matrix(7.5166,37.5407,-154.783,30.992,417.581,71.7584)"><stop offset="0" style="stop-color:#3771c8;stop-opacity:1"/><stop offset="0.13" style="stop-color:#3771c8;stop-opacity:1"/><stop offset="1" style="stop-color:#60f;stop-opacity:0"/></radialGradient></defs></svg>